#!OML:ASF F:\VICON\USERDATA\INSTALL\rory3\rory3.ASF
:FULLY-SPECIFIED
:DEGREES
449
root 0.489687 17.1473 12.0809 11.9119 -7.01321 -2.50309
lowerback -13.2468 3.42949 5.88965
upperback -5.60203 3.80139 -0.119856
thorax 1.88954 1.81784 -2.87061
lowerneck -14.9101 -3.1656 -7.94957
upperneck 26.7932 -4.04353 5.82016
head 11.4682 -1.92897 2.92557
rclavicle 3.17186e-014 1.40143e-014
rhumerus -38.9588 3.59404 -89.8388
rradius 31.4065
rwrist 3.30836
rhand -23.7932 -48.6763
rfingers 7.12502
rthumb 2.67704 -78.6392
lclavicle 3.17186e-014 1.40143e-014
lhumerus -47.4864 0.479958 82.1737
lradius 28.9286
lwrist 8.34966
lhand -32.321 -25.033
lfingers 7.12502
lthumb -5.55865 4.87409
rfemur 1.12344 8.07515 23.4627
rtibia 30.6268
rfoot -2.78203 9.04602
rtoes -24.2744
lfemur -37.8326 -5.0939 -19.309
ltibia 33.9799
lfoot -7.47905 2.43782
ltoes 4.98041
450
root 0.500716 17.1515 12.2408 11.6811 -6.92323 -2.36121
lowerback -13.0741 3.35044 5.77842
upperback -5.60687 3.7228 -0.102598
thorax 1.77732 1.7776 -2.81171
lowerneck -14.894 -3.17127 -7.96952
upperneck 26.8187 -4.03768 5.78089
head 11.4741 -1.93377 2.91571
rclavicle -2.86001e-014 -1.97791e-014
rhumerus -39.4608 3.63706 -89.9387
rradius 31.3374
rwrist 2.18553
rhand -24.9951 -47.7131
rfingers 7.12502
rthumb 1.51633 -77.6875
lclavicle -2.86001e-014 -1.97791e-014
lhumerus -47.1805 0.413922 82.266
lradius 28.7814
lwrist 8.24521
lhand -32.5251 -24.7863
lfingers 7.12502
lthumb -5.75571 5.11555
rfemur 0.185008 7.87591 23.1014
rtibia 33.1391
rfoot -1.30801 9.8424
rtoes -24.9847
lfemur -37.0027 -5.10791 -19.6881
ltibia 34.0473
lfoot -7.94938 2.35977
ltoes 4.74837
451
root 0.522794 17.1608 12.4159 11.2757 -6.8359 -1.68125
lowerback -13.1085 3.25459 5.26621
upperback -5.43492 3.65672 -0.27638
thorax 1.95485 1.75702 -2.71009
lowerneck -15.1095 -3.2202 -7.88736
upperneck 26.9481 -4.1046 5.72973
head 11.5699 -1.95934 2.87378
rclavicle 1.23371e-014 1.61016e-014
rhumerus -39.8348 3.17912 -89.6574
rradius 31.624
rwrist 2.88271
rhand -23.8305 -48.2662
rfingers 7.12502
rthumb 2.6411 -78.2296
lclavicle 1.23371e-014 1.61016e-014
lhumerus -46.707 0.118647 82.4877
lradius 28.7512
lwrist 8.42518
lhand -32.4599 -22.9144
lfingers 7.12502
lthumb -5.69276 6.98917
rfemur -0.57164 7.3725 22.0313
rtibia 35.6896
rfoot -0.0197237 10.6674
rtoes -24.8204
lfemur -35.9092 -5.42007 -20.6912
ltibia 34.0836
lfoot -8.56312 2.52229
ltoes 5.09131
452
root 0.539335 17.1713 12.5687 11.1659 -6.97013 -1.16547
lowerback -13.158 3.21485 4.78926
upperback -5.45625 3.66333 -0.40556
thorax 1.94226 1.76375 -2.57522
lowerneck -15.0379 -3.22587 -7.80169
upperneck 27.0345 -4.13407 5.6853
head 11.5879 -1.97122 2.84018
rclavicle 5.32991e-015 -1.03368e-014
rhumerus -40.1911 2.948 -89.5132
rradius 31.5052
rwrist 3.76048
rhand -23.5863 -48.0513
rfingers 7.12502
rthumb 2.87693 -78.0116
lclavicle 5.32991e-015 -1.03368e-014
lhumerus -46.4514 -0.176354 82.6727
lradius 28.9018
lwrist 8.82172
lhand -32.1172 -21.8719
lfingers 7.12502
lthumb -5.36193 8.04024
rfemur -1.89027 7.27377 21.1063
rtibia 38.284
rfoot 2.02066 11.2604
rtoes -22.4519
lfemur -35.2754 -5.45905 -21.469
ltibia 34.0963
lfoot -9.11511 2.62882
ltoes 5.51573
453
root 0.544921 17.1804 12.707 11.2757 -7.22148 -1.21728
lowerback -12.9653 3.25845 4.73345
upperback -5.69542 3.74205 -0.370038
thorax 1.5883 1.79257 -2.51173
lowerneck -14.7171 -3.21176 -7.90581
upperneck 27.0889 -4.15548 5.82643
head 11.5512 -1.98008 2.91105
rclavicle -2.48108e-014 -2.84262e-014
rhumerus -40.6378 3.11374 -89.6287
rradius 31.2505
rwrist 3.76193
rhand -23.582 -48.0356
rfingers 7.12502
rthumb 2.88107 -77.9959
lclavicle -2.48108e-014 -2.84262e-014
lhumerus -46.3687 -0.374709 82.7413
lradius 29.0748
lwrist 8.87141
lhand -31.9964 -21.3334
lfingers 7.12502
lthumb -5.2453 8.58168
rfemur -3.6308 7.57307 20.8661
rtibia 41.0184
rfoot 4.63773 11.4993
rtoes -18.5345
lfemur -34.935 -5.06463 -21.6148
ltibia 34.0965
lfoot -9.59556 2.51227
ltoes 5.87959
454
root 0.556048 17.1846 12.8668 11.1989 -7.35891 -1.1795
lowerback -12.997 3.27271 4.71091
upperback -5.68192 3.761 -0.369856
thorax 1.61976 1.80297 -2.49404
lowerneck -14.8103 -3.18654 -8.14545
upperneck 27.2732 -4.17113 6.22313
head 11.6569 -1.96284 3.1027
rclavicle -3.18055e-015 3.57812e-015
rhumerus -40.8585 3.39273 -89.7984
rradius 31.1742
rwrist 3.37588
rhand -23.2446 -48.5161
rfingers 7.12502
rthumb 3.20687 -78.4717
lclavicle -3.18055e-015 3.57812e-015
lhumerus -45.9967 -0.619666 82.8814
lradius 29.4012
lwrist 8.42235
lhand -31.8642 -17.0033
lfingers 7.12502
lthumb -5.11757 12.9149
rfemur -4.93322 7.49243 20.5169
rtibia 43.6987
rfoot 6.22964 11.7212
rtoes -17.9016
lfemur -34.2347 -4.75607 -21.9345
ltibia 34.0938
lfoot -10.2218 2.40526
ltoes 6.13261
455
root 0.55758 17.1744 12.9838 10.7084 -7.41725 -0.64889
lowerback -12.1467 3.12517 4.05038
upperback -5.72439 3.69037 -0.468914
thorax 1.08264 1.76698 -2.28173
lowerneck -14.9226 -3.15669 -8.11689
upperneck 27.4548 -4.16744 6.32829
head 11.7511 -1.94464 3.14169
rclavicle -1.24365e-014 -9.83984e-015
rhumerus -41.2087 3.52625 -89.937
rradius 31.1439
rwrist 3.23104
rhand -23.5755 -48.4719
rfingers 7.12502
rthumb 2.88732 -78.4321
lclavicle -1.24365e-014 -9.83984e-015
lhumerus -45.7194 -0.994229 83.072
lradius 29.6934
lwrist 8.0495
lhand -31.5287 -13.3784
lfingers 7.12502
lthumb -4.79368 16.5473
rfemur -6.02909 7.37345 19.8985
rtibia 46.5205
rfoot 6.71922 11.7588
rtoes -21.6778
lfemur -33.2972 -4.54907 -22.7061
ltibia 34.0577
lfoot -10.7671 2.2758
ltoes 6.13629
456
root 0.565702 17.1682 13.1281 10.0857 -7.01947 0.109515
lowerback -11.8656 2.84203 3.30755
upperback -5.50319 3.40953 -0.622951
thorax 1.11398 1.6411 -2.07098
lowerneck -14.7959 -3.12111 -7.94217
upperneck 27.2367 -4.13574 6.22914
head 11.631 -1.92531 3.07445
rclavicle 1.93567e-014 1.04362e-014
rhumerus -41.3406 3.59351 -89.9819
rradius 31.0617
rwrist 3.37403
rhand -23.7801 -47.9591
rfingers 7.12502
rthumb 2.68974 -77.9219
lclavicle 1.93567e-014 1.04362e-014
lhumerus -45.2896 -1.35322 83.2843
lradius 29.6749
lwrist 8.42777
lhand -32.1178 -12.6337
lfingers 7.12502
lthumb -5.36249 17.2784
rfemur -6.82098 6.68765 19.0622
rtibia 49.2224
rfoot 7.54602 11.9578
rtoes -22.8822
lfemur -32.0245 -4.6272 -23.7542
ltibia 33.8881
lfoot -11.3799 1.96878
ltoes 5.3663
457
root 0.571982 17.1671 13.2545 10.0047 -7.10786 0.742457
lowerback -11.7399 2.73625 2.60372
upperback -5.43507 3.35104 -0.766755
thorax 1.08584 1.62166 -1.83758
lowerneck -14.8816 -3.08503 -7.8989
upperneck 27.0763 -4.09035 6.25955
head 11.5818 -1.89421 3.08109
rclavicle -2.75317e-014 -3.97569e-016
rhumerus -41.2277 3.73865 -90.0463
rradius 30.8563
rwrist 3.47906
rhand -23.6831 -47.5735
rfingers 7.12502
rthumb 2.78336 -77.5351
lclavicle -2.75317e-014 -3.97569e-016
lhumerus -44.7391 -1.70237 83.5123
lradius 29.8854
lwrist 8.88192
lhand -32.5513 -6.21942
lfingers 7.12502
lthumb -5.78102 23.6817
rfemur -8.61548 6.38635 18.1539
rtibia 52.0782
rfoot 9.20843 12.0905
rtoes -20.4294
lfemur -31.3794 -4.51636 -24.609
ltibia 33.6574
lfoot -11.6436 1.78665
ltoes 4.56848
458
root 0.577548 17.166 13.3909 9.64692 -6.87571 1.46638
lowerback -11.4118 2.48522 1.83695
upperback -5.39518 3.10933 -0.89973
thorax 0.907335 1.51029 -1.58984
lowerneck -14.8191 -3.0423 -7.90419
upperneck 27.0591 -4.02719 6.24297
head 11.5567 -1.86951 3.08492
rclavicle 3.50234e-014 2.18663e-014
rhumerus -41.3932 3.83721 -90.0771
rradius 30.7264
rwrist 3.67238
rhand -23.6163 -47.7788
rfingers 7.12502
rthumb 2.84795 -77.7395
lclavicle 3.50234e-014 2.18663e-014
lhumerus -44.4186 -1.96172 83.7346
lradius 30.2342
lwrist 9.01028
lhand -32.7026 -6.70584
lfingers 7.12502
lthumb -5.92706 23.1913
rfemur -9.99015 5.75068 17.2718
rtibia 54.8146
rfoot 8.58926 10.7903
rtoes -24.8364
lfemur -30.3913 -4.65547 -25.554
ltibia 33.4005
lfoot -12.0424 1.5932
ltoes 3.60512
459
root 0.578816 17.1601 13.5165 9.57083 -7.12639 1.85496
lowerback -11.3151 2.4114 1.3109
upperback -5.43953 3.0664 -0.94093
thorax 0.783451 1.49539 -1.3484
lowerneck -14.5532 -2.94046 -7.89854
upperneck 26.9036 -3.92186 6.32918
head 11.435 -1.81462 3.12933
rclavicle -5.75233e-015 -5.1684e-015
rhumerus -41.6772 3.9814 -90.1194
rradius 30.8297
rwrist 4.13832
rhand -23.9555 -47.4494
rfingers 7.12502
rthumb 2.52032 -77.4142
lclavicle -5.75233e-015 -5.1684e-015
lhumerus -44.0293 -2.10086 83.8553
lradius 30.2798
lwrist 9.00506
lhand -32.6212 -25.529
lfingers 7.12502
lthumb -5.84851 4.37028
rfemur -11.8119 5.54572 16.6582
rtibia 57.5731
rfoot 8.4698 8.5931
rtoes -24.8453
lfemur -29.7731 -4.41512 -26.144
ltibia 33.1816
lfoot -12.461 1.71929
ltoes 2.61267
460
root 0.581938 17.1559 13.6376 9.58609 -6.98481 2.18559
lowerback -11.3273 2.23353 0.924584
upperback -5.39731 2.87094 -1.00242
thorax 0.81258 1.40371 -1.21768
lowerneck -14.5459 -2.82562 -7.84548
upperneck 26.7421 -3.80278 6.46186
head 11.362 -1.73837 3.18332
rclavicle 2.7482e-014 5.96354e-016
rhumerus -41.7381 4.11451 -90.194
rradius 31.0367
rwrist 4.39153
rhand -24.3492 -46.6959
rfingers 7.12502
rthumb 2.14014 -76.665
lclavicle 2.7482e-014 5.96354e-016
lhumerus -43.3753 -2.24452 83.878
lradius 30.3289
lwrist 8.77365
lhand -31.8192 2.1761
lfingers 7.12502
lthumb -5.07412 32.0953
rfemur -13.6122 4.95984 16.2143
rtibia 60.2188
rfoot 8.36339 6.24443
rtoes -21.6822
lfemur -29.2711 -4.50868 -26.6088
ltibia 32.9959
lfoot -12.6552 1.75567
ltoes 3.14125
461
root 0.583236 17.1537 13.7547 9.50139 -6.87063 2.71895
lowerback -11.057 2.07673 0.326223
upperback -5.44546 2.72577 -1.13455
thorax 0.591346 1.33889 -1.04753
lowerneck -14.6151 -2.80028 -7.75515
upperneck 26.8212 -3.77104 6.39709
head 11.4001 -1.72211 3.14966
rclavicle 5.85172e-015 7.95139e-015
rhumerus -41.8793 3.96944 -90.1869
rradius 31.0094
rwrist 4.32855
rhand -24.2906 -46.685
rfingers 7.12502
rthumb 2.19668 -76.6534
lclavicle 5.85172e-015 7.95139e-015
lhumerus -42.9215 -2.61983 84.0287
lradius 30.5031
lwrist 8.76883
lhand -32.6143 -25.4703
lfingers 7.12502
lthumb -5.84187 4.42919
rfemur -15.3804 4.32812 15.5845
rtibia 62.7568
rfoot 7.28092 4.07413
rtoes -21.5503
lfemur -28.7048 -4.69735 -27.2686
ltibia 32.8649
lfoot -12.9413 1.79958
ltoes 4.3396
